<svg width="265" height="547" viewBox="0 0 265 547" fill="none" xmlns="http://www.w3.org/2000/svg">
<mask id="mask0_66_55" style="mask-type:alpha" maskUnits="userSpaceOnUse" x="0" y="114" width="265" height="361">
<path d="M252 206.5C237.2 182.9 181.833 135 156 114C103.6 126 59.1667 142.667 43.5 149.5L0 235.5V395.5C25 419.667 77.9 468.8 89.5 472C104 476 165.5 473.5 189.5 472C213.5 470.5 236.5 462 236.5 436.5C236.5 416.1 242.167 400.667 245 395.5C248.5 393.5 253.4 388.2 245 383C236.6 377.8 218.833 355.167 211 344.5C220.333 337.833 241.5 322.4 251.5 314C264 303.5 252.5 295.5 240.5 281C230.9 269.4 244.5 260 259 246C267.5 238.5 266.8 230.1 252 206.5Z" fill="#D9D9D9"/>
</mask>
<g mask="url(#mask0_66_55)">
<path d="M252 206.5C237.2 182.9 181.833 135 156 114C103.6 126 59.1667 142.667 43.5 149.5L-2.5 238V393C22.5 417.167 77.9 468.8 89.5 472C104 476 165.5 473.5 189.5 472C213.5 470.5 236.5 462 236.5 436.5C236.5 416.1 242.167 400.667 245 395.5C248.5 393.5 253.4 388.2 245 383C236.6 377.8 218.833 355.167 211 344.5C220.333 337.833 241.5 322.4 251.5 314C264 303.5 252.5 295.5 240.5 281C230.9 269.4 244.5 260 259 246C267.5 238.5 266.8 230.1 252 206.5Z" fill="#FFAF8C"/>
<path d="M207 342.5L252.5 293L264 306.5L227.5 345L261.5 361.5L253.5 396H245C228.2 386 212.667 356.167 207 342.5Z" fill="#FF5C54"/>
<path d="M121 185.999C139.8 174.799 162.833 174.666 172 175.999C163 169.999 133.5 164.499 110 180.999C91.2001 194.199 73.5001 196.166 67.0001 195.499C83.0001 209.499 97.5001 199.999 121 185.999Z" fill="#1F0101"/>
<path d="M112.5 138.999C144.1 131.799 172.667 142 173.5 142.999C178.5 148.999 177.5 150.999 135.5 154.999C93.5 158.999 82.0001 176.999 68.5001 175.999C55.0001 174.999 60.0001 163.499 60.0001 161.999C60.0001 160.499 73.0001 147.999 112.5 138.999Z" fill="#1F0101"/>
</g>
<path d="M51.451 142C40.1149 267.23 39.7324 288.088 141.377 420.925C142.543 422.332 143.588 423.689 144.5 425C143.448 423.63 142.407 422.271 141.377 420.925C111.853 385.292 4.8042 317.248 19.5396 142H51.451Z" fill="#D39DCC"/>
<mask id="mask1_66_55" style="mask-type:alpha" maskUnits="userSpaceOnUse" x="0" y="0" width="158" height="547">
<path d="M0 547L95 473.5C84.2 469.9 30 419.5 3.5 396V233.5C15.5 209.5 41.3 159.3 48.5 150.5C55.7 141.7 124.5 122.833 158 114.5C130 58.9 41 15 0 0V547Z" fill="#D39DCC"/>
</mask>
<g mask="url(#mask1_66_55)">
<path d="M-2 547L93 473.5C82.2 469.9 28 419.5 1.5 396V233.5C13.5 209.5 39.3 159.3 46.5 150.5C53.7 141.7 122.5 122.833 156 114.5C128 58.9 39 15 -2 0V547Z" fill="#D39DCC"/>
<path d="M-12.5 144C-3.7 105.6 50.8333 57.6667 77 38.5C64.6 26.5 37.8333 14.8333 26 10.5C6 20.5 -22 49.8333 -26.5 67.5L-12.5 144Z" fill="#D9D9D9"/>
</g>
<path fill-rule="evenodd" clip-rule="evenodd" d="M0 433.287C24.7854 430.323 44 409.227 44 383.644C44 358.06 24.7854 336.964 0 334V354.244C13.6934 357.023 24 369.13 24 383.644C24 398.157 13.6934 410.264 0 413.044V433.287Z" fill="#FFE100"/>
</svg>
