<svg width="54" height="1283" viewBox="0 0 54 1283" fill="none" xmlns="http://www.w3.org/2000/svg">
<path d="M0.291264 1283C29.7927 1283 53.7084 1259.08 53.7084 1229.58C53.7084 1200.08 29.7927 1176.17 0.29126 1176.17L0.291262 1229.58L0.291264 1283Z" fill="#69743F"/>
<path d="M0.291264 1176.17C29.7927 1176.17 53.7084 1152.25 53.7084 1122.75C53.7084 1093.25 29.7927 1069.33 0.29126 1069.33L0.291262 1122.75L0.291264 1176.17Z" fill="#69743F"/>
<path d="M0.291264 1069.33C29.7927 1069.33 53.7084 1045.42 53.7084 1015.91C53.7084 986.413 29.7927 962.497 0.29126 962.497L0.291262 1015.91L0.291264 1069.33Z" fill="#69743F"/>
<path d="M0.291264 962.497C29.7927 962.497 53.7084 938.582 53.7084 909.08C53.7084 879.579 29.7927 855.663 0.29126 855.663L0.291262 909.08L0.291264 962.497Z" fill="#69743F"/>
<path d="M0.291264 854.674C29.7927 854.674 53.7084 830.758 53.7084 801.257C53.7084 771.755 29.7927 747.84 0.29126 747.84L0.291262 801.257L0.291264 854.674Z" fill="#69743F"/>
<path d="M0.291264 747.84C29.7927 747.84 53.7084 723.924 53.7084 694.422C53.7084 664.921 29.7927 641.005 0.29126 641.005L0.291262 694.422L0.291264 747.84Z" fill="#69743F"/>
<path d="M0.291264 641.005C29.7927 641.005 53.7084 617.09 53.7084 587.588C53.7084 558.087 29.7927 534.171 0.29126 534.171L0.291262 587.588L0.291264 641.005Z" fill="#69743F"/>
<path d="M0.291264 534.171C29.7927 534.171 53.7084 510.256 53.7084 480.754C53.7084 451.253 29.7927 427.337 0.29126 427.337L0.291262 480.754L0.291264 534.171Z" fill="#69743F"/>
<path d="M0.291264 427.337C29.7927 427.337 53.7084 403.421 53.7084 373.92C53.7084 344.418 29.7927 320.503 0.29126 320.503L0.291262 373.92L0.291264 427.337Z" fill="#69743F"/>
<path d="M0.291264 320.503C29.7927 320.503 53.7084 296.587 53.7084 267.086C53.7084 237.584 29.7927 213.668 0.29126 213.668L0.291262 267.086L0.291264 320.503Z" fill="#69743F"/>
<path d="M0.291264 213.668C29.7927 213.668 53.7084 189.753 53.7084 160.251C53.7084 130.75 29.7927 106.834 0.29126 106.834L0.291262 160.251L0.291264 213.668Z" fill="#69743F"/>
<path d="M0.291264 106.834C29.7927 106.834 53.7084 82.9186 53.7084 53.4171C53.7084 23.9157 29.7927 1.04539e-06 0.29126 2.33494e-06L0.291262 53.4171L0.291264 106.834Z" fill="#69743F"/>
</svg>
