<svg width="54" height="1283" viewBox="0 0 54 1283" fill="none" xmlns="http://www.w3.org/2000/svg">
<path d="M53.7085 1283C24.207 1283 0.291374 1259.08 0.291375 1229.58C0.291377 1200.08 24.207 1176.17 53.7085 1176.17L53.7085 1229.58L53.7085 1283Z" fill="#69743F"/>
<path d="M53.7085 1176.17C24.207 1176.17 0.291374 1152.25 0.291375 1122.75C0.291377 1093.25 24.207 1069.33 53.7085 1069.33L53.7085 1122.75L53.7085 1176.17Z" fill="#69743F"/>
<path d="M53.7085 1069.33C24.207 1069.33 0.291374 1045.42 0.291375 1015.91C0.291377 986.413 24.207 962.497 53.7085 962.497L53.7085 1015.91L53.7085 1069.33Z" fill="#69743F"/>
<path d="M53.7085 962.497C24.207 962.497 0.291374 938.582 0.291375 909.08C0.291377 879.579 24.207 855.663 53.7085 855.663L53.7085 909.08L53.7085 962.497Z" fill="#69743F"/>
<path d="M53.7085 854.674C24.207 854.674 0.291374 830.758 0.291375 801.257C0.291377 771.755 24.207 747.84 53.7085 747.84L53.7085 801.257L53.7085 854.674Z" fill="#69743F"/>
<path d="M53.7085 747.84C24.207 747.84 0.291374 723.924 0.291375 694.422C0.291377 664.921 24.207 641.005 53.7085 641.005L53.7085 694.422L53.7085 747.84Z" fill="#69743F"/>
<path d="M53.7085 641.005C24.207 641.005 0.291374 617.09 0.291375 587.588C0.291377 558.087 24.207 534.171 53.7085 534.171L53.7085 587.588L53.7085 641.005Z" fill="#69743F"/>
<path d="M53.7085 534.171C24.207 534.171 0.291374 510.256 0.291375 480.754C0.291377 451.253 24.207 427.337 53.7085 427.337L53.7085 480.754L53.7085 534.171Z" fill="#69743F"/>
<path d="M53.7085 427.337C24.207 427.337 0.291374 403.421 0.291375 373.92C0.291377 344.418 24.207 320.503 53.7085 320.503L53.7085 373.92L53.7085 427.337Z" fill="#69743F"/>
<path d="M53.7085 320.503C24.207 320.503 0.291374 296.587 0.291375 267.086C0.291377 237.584 24.207 213.668 53.7085 213.668L53.7085 267.086L53.7085 320.503Z" fill="#69743F"/>
<path d="M53.7085 213.668C24.207 213.668 0.291374 189.753 0.291375 160.251C0.291377 130.75 24.207 106.834 53.7085 106.834L53.7085 160.251L53.7085 213.668Z" fill="#69743F"/>
<path d="M53.7085 106.834C24.207 106.834 0.291374 82.9186 0.291375 53.4171C0.291377 23.9157 24.207 1.04539e-06 53.7085 2.33494e-06L53.7085 53.4171L53.7085 106.834Z" fill="#69743F"/>
</svg>
