<svg width="1512" height="54" viewBox="0 0 1512 54" fill="none" xmlns="http://www.w3.org/2000/svg">
<path d="M1512 0C1512 29.8234 1487.82 54 1458 54C1428.18 54 1404 29.8234 1404 0L1458 0L1512 0Z" fill="#69743F"/>
<path d="M1404 0C1404 29.8234 1379.82 54 1350 54C1320.18 54 1296 29.8234 1296 0L1350 0L1404 0Z" fill="#69743F"/>
<path d="M1296 0C1296 29.8234 1271.82 54 1242 54C1212.18 54 1188 29.8234 1188 0L1242 0L1296 0Z" fill="#69743F"/>
<path d="M1188 0C1188 29.8234 1163.82 54 1134 54C1104.18 54 1080 29.8234 1080 0L1134 0L1188 0Z" fill="#69743F"/>
<path d="M1080 0C1080 29.8234 1055.82 54 1026 54C996.177 54 972 29.8234 972 0L1026 0L1080 0Z" fill="#69743F"/>
<path d="M972 0C972 29.8234 947.823 54 918 54C888.177 54 864 29.8234 864 0L918 0L972 0Z" fill="#69743F"/>
<path d="M863 0C863 29.8234 838.823 54 809 54C779.177 54 755 29.8234 755 0L809 0L863 0Z" fill="#69743F"/>
<path d="M755 0C755 29.8234 730.823 54 701 54C671.177 54 647 29.8234 647 0L701 0L755 0Z" fill="#69743F"/>
<path d="M647 0C647 29.8234 622.823 54 593 54C563.177 54 539 29.8234 539 0L593 0L647 0Z" fill="#69743F"/>
<path d="M539 0C539 29.8234 514.823 54 485 54C455.177 54 431 29.8234 431 0L485 0L539 0Z" fill="#69743F"/>
<path d="M431 0C431 29.8234 406.823 54 377 54C347.177 54 323 29.8234 323 0L377 0L431 0Z" fill="#69743F"/>
<path d="M323 0C323 29.8234 298.823 54 269 54C239.177 54 215 29.8234 215 0L269 0L323 0Z" fill="#69743F"/>
<path d="M215 0C215 29.8234 190.823 54 161 54C131.177 54 107 29.8234 107 0L161 0L215 0Z" fill="#69743F"/>
<path d="M107 0C107 29.8234 82.8234 54 53 54C23.1766 54 -1 29.8234 -1 0L53 0L107 0Z" fill="#69743F"/>
</svg>
