<svg width="260" height="539" viewBox="0 0 260 539" fill="none" xmlns="http://www.w3.org/2000/svg">
<mask id="mask0_67_82" style="mask-type:alpha" maskUnits="userSpaceOnUse" x="0" y="112" width="264" height="427">
<path d="M226.678 475.295L263.178 538.295C263.345 423.128 263.279 192.895 261.679 193.295C260.079 193.695 250.679 198.462 246.179 200.795L233.179 112.295L42.6787 122.795C27.6787 136.795 2.67853 267.795 0.178525 287.795C-2.32147 307.795 22.1785 316.295 27.1785 317.795C32.1785 319.295 42.6784 324.795 34.6786 341.295C28.2787 354.495 37.3452 364.128 42.6784 367.295C37.0784 375.295 45.0117 385.295 49.6784 389.295C72.1784 401.295 71.1784 426.795 73.1784 440.795C75.1784 454.795 70.1784 486.795 116.678 498.795C153.878 508.395 205.512 487.128 226.678 475.295Z" fill="#FE7B42"/>
</mask>
<g mask="url(#mask0_67_82)">
<path d="M226.678 475.295L263.178 538.295C263.345 423.128 263.279 192.895 261.679 193.295C260.079 193.695 250.679 198.462 246.179 200.795L233.179 112.295L42.6787 122.795C27.6787 136.795 2.67853 267.795 0.178525 287.795C-2.32147 307.795 22.1785 316.295 27.1785 317.795C32.1785 319.295 42.6784 324.795 34.6786 341.295C28.2787 354.495 37.3452 364.128 42.6784 367.295C37.0784 375.295 45.0117 385.295 49.6784 389.295C72.1784 401.295 71.1784 426.795 73.1784 440.795C75.1784 454.795 70.1784 486.795 116.678 498.795C153.878 508.395 205.512 487.128 226.678 475.295Z" fill="#FE7B42"/>
<path d="M89.6787 356.295C75.2787 355.495 48.6787 342.295 37.1787 335.795H31.1787L29.6787 371.295L55.1787 396.295C80.3787 385.895 88.6787 365.295 89.6787 356.295Z" fill="#9E882F"/>
<path d="M87.6787 355.295C68.4787 368.895 48.3454 366.962 40.6787 364.295C61.8787 374.295 81.8454 364.462 89.1787 358.295L87.6787 355.295Z" fill="#060606"/>
<path d="M90.6787 191.795C69.4787 186.195 50.8454 195.462 44.1787 200.795C53.1787 183.795 81.9496 183.691 86.1787 184.295C89.6787 184.795 120.679 189.295 125.679 190.295C130.679 191.295 129.179 195.795 127.679 196.795C126.179 197.795 117.179 198.795 90.6787 191.795Z" fill="#101010"/>
<path d="M49.1787 164.295L47.6787 145.295L174.679 142.795L175.679 161.795L49.1787 164.295Z" fill="#9E882F"/>
</g>
<path d="M261.679 0.794813C116.079 -9.20519 55.012 77.6281 42.6787 122.295L232.679 112.795L246.679 200.795L261.679 191.295V0.794813Z" fill="#9E882F"/>
</svg>
