<svg width="643" height="1259" viewBox="0 0 643 1259" fill="none" xmlns="http://www.w3.org/2000/svg">
<path d="M641 493.5C650.6 455.1 602.333 386.5 577 357C578 376 579.4 423.3 577 460.5C574.6 497.7 516 555 487 579C505.667 592.5 548.6 618.7 571 615.5C599 611.5 629 541.5 641 493.5Z" fill="#F79D75"/>
<mask id="mask0_204_2" style="mask-type:alpha" maskUnits="userSpaceOnUse" x="233" y="0" width="409" height="764">
<path d="M323 281C339.4 232.2 440.667 148.667 498 106C498 95.0002 534 14.5002 551.5 6.00022C565.5 -0.79978 588.5 -2.99974 604.5 14.5002C620.5 32.0002 616 128.5 596 188C576 247.5 573 322 583.5 415C594 508 481 578 491.5 578C502 578 536.5 621 573 610.5C602.2 602.1 630.333 525.833 641.5 488.5C639 520.5 590 663 552 677.5C521.6 689.1 491.333 738 480 761C461 775.5 339 725.5 333.5 718.5C328 711.5 232.5 654.5 233.5 599C234.5 543.5 302.5 342 323 281Z" fill="#FFAF8C"/>
</mask>
<g mask="url(#mask0_204_2)">
<path d="M323 281C339.4 232.2 440.667 148.667 498 106C498 95.0002 534 14.5002 551.5 6.00022C565.5 -0.79978 588.5 -2.99974 604.5 14.5002C620.5 32.0002 616 128.5 596 188C576 247.5 573 322 583.5 415C594 508 481 578 491.5 578C502 578 536.5 621 573 610.5C602.2 602.1 630.333 525.833 641.5 488.5C639 520.5 590 663 552 677.5C521.6 689.1 491.333 738 480 761C461 775.5 339 725.5 333.5 718.5C328 711.5 232.5 654.5 233.5 599C234.5 543.5 302.5 342 323 281Z" fill="#FFAF8C"/>
<path d="M271 676.5C280.2 637.3 274.833 483.833 271 412C249.167 464 205.5 572.7 205.5 591.5C205.5 610.3 249.167 656 271 676.5Z" fill="#FFA67F"/>
</g>
<path d="M502.5 133C459.833 159.167 377.3 221.3 388.5 260.5C399.7 299.7 469.167 191.833 502.5 133Z" fill="#F79D75"/>
<mask id="mask1_204_2" style="mask-type:alpha" maskUnits="userSpaceOnUse" x="529" y="7" width="71" height="81">
<path d="M530 73.5C527.6 41.9 545 17.3333 554 8.99998C586.5 1.99998 598.5 23.5 598.5 26.5C598.5 29.5 600 43.5 598.5 68C597.3 87.6 586.333 88.5 581 86.5C571 77.7 542.833 74.1666 530 73.5Z" fill="#D9D9D9"/>
</mask>
<g mask="url(#mask1_204_2)">
<path d="M530 73.5C527.6 41.9 545 17.3333 554 8.99998C586.5 1.99998 598.5 23.5 598.5 26.5C598.5 29.5 600 43.5 598.5 68C597.3 87.6 586.333 88.5 581 86.5C571 77.7 542.833 74.1666 530 73.5Z" fill="#FDD6CF"/>
<path d="M567.573 4C572.156 -0.120381 576.539 -3.34917 578.5 -3.5V4H567.573C562.028 8.98574 556.19 15.2769 554 19C549 27.5 537.5 39 542.5 74.5H527.5L531.5 31L554 4H567.573Z" fill="url(#paint0_linear_204_2)"/>
</g>
<path d="M496.996 759.5C339.796 743.9 243.079 608.938 230.999 601C218.919 593.063 205.699 654.138 207 664.5C253.68 772.052 470.269 839.674 481.996 827.5C493.722 815.327 501.662 762.167 496.996 759.5Z" fill="#D9D9D9"/>
<mask id="mask2_204_2" style="mask-type:alpha" maskUnits="userSpaceOnUse" x="0" y="642" width="520" height="617">
<path d="M505.5 826C273.9 782 213 686 208 642.5C142 630.1 32 925.167 0 1073.5L267.5 1258.5C287.5 1240.83 352.2 1173.3 451 1044.5C549.8 915.7 515.5 828.5 505.5 826Z" fill="#686CFA"/>
</mask>
<g mask="url(#mask2_204_2)">
<path d="M505.5 826C273.9 782 213 686 208 642.5C142 630.1 32 925.167 0 1073.5L267.5 1258.5C287.5 1240.83 352.2 1173.3 451 1044.5C549.8 915.7 515.5 828.5 505.5 826Z" fill="#686CFA"/>
<path d="M243.5 1261C461.1 1026.6 496.833 869.667 487.5 820.5H516.5L581.5 878.5L299 1282L243.5 1261Z" fill="#565AE6"/>
</g>
<defs>
<linearGradient id="paint0_linear_204_2" x1="553" y1="4" x2="553" y2="74.5" gradientUnits="userSpaceOnUse">
<stop stop-color="#FFE6E2"/>
<stop offset="1" stop-color="#FFE6E2" stop-opacity="0"/>
</linearGradient>
</defs>
</svg>
