<svg width="1512" height="647" viewBox="0 0 1512 647" fill="none" xmlns="http://www.w3.org/2000/svg">
<g filter="url(#filter0_d_13_89)">
<path d="M552.056 373.647C569.981 387.082 606.58 390.813 622.639 391L626 343.978C624.88 343.605 619.278 341.179 605.833 334.462C589.028 326.065 566.62 289.12 547.014 277.364C527.407 265.609 457.384 293.598 415.931 232.022C374.477 170.446 333.583 158.69 265.801 165.967C198.019 173.245 171.69 139.098 127.995 99.3533C84.3009 59.6087 47.9954 8.39674 1.5 0C-35.6963 -6.71739 -85.4352 9.78804 -100 -21V198.995C-88.0494 215.415 -53.2806 247.696 -9.81018 245.457C44.5278 242.658 86.5417 261.69 98.3056 277.364C110.069 293.038 148.162 305.913 171.69 308.152C195.218 310.391 279.245 295.837 333.583 334.462C387.921 373.087 446.181 364.13 457.384 360.212C468.588 356.293 529.648 356.853 552.056 373.647Z" fill="#F1B154"/>
</g>
<path d="M323 203L332.013 226.237L353.854 214.23L345.822 237.824L370.271 242.665L348.952 255.576L364.569 275L339.939 271.187L339.417 296.105L323 277.352L306.583 296.105L306.061 271.187L281.431 275L297.048 255.576L275.729 242.665L300.178 237.824L292.146 214.23L313.987 226.237L323 203Z" fill="#F9EFCD"/>
<path d="M103.008 139.5C42.6077 151.1 -0.825577 36.1667 -14.9922 22.5L-25.9922 201.5C-26.3255 210.333 -16.1922 229.2 27.0078 234C81.0078 240 66.5078 210.5 48.0078 201.5C29.5078 192.5 28.0078 177 95.0077 183C162.008 189 178.508 125 103.008 139.5Z" fill="#EB804B"/>
<path d="M136.79 196.547C169.59 192.147 181.79 215.38 183.79 227.547C194.29 252.547 86.2895 234.047 80.7895 219.047C75.2895 204.047 95.7895 202.047 136.79 196.547Z" fill="#EB804B"/>
<g filter="url(#filter1_d_13_89)">
<path d="M870 463.848L878.961 439.737C886.615 445.157 907.524 452.745 929.927 439.737C957.93 423.476 1035.22 397.683 1074.98 420.112C1114.75 442.54 1154.51 443.101 1202.12 426.28C1249.72 409.458 1285.01 404.972 1310.21 407.776C1335.41 410.58 1375.18 435.812 1452.46 420.112C1514.29 407.552 1577.92 419.738 1602 427.401V633.745C1602 633.745 1532.55 638.791 1488.31 604.027C1444.06 569.262 1408.78 554.123 1370.13 568.701C1331.49 583.28 1285.01 569.823 1265.96 559.73C1246.92 549.637 1237.96 535.619 1184.19 544.03C1130.43 552.441 1092.34 547.955 1077.78 544.03C1063.22 540.105 979.212 490.201 932.727 490.762C895.539 491.211 875.414 473.006 870 463.848Z" fill="#F1B154"/>
</g>
<path d="M1087 455L1093.2 470.976L1108.21 462.721L1102.69 478.941L1119.5 482.27L1104.84 491.146L1115.58 504.5L1098.65 501.878L1098.29 519.01L1087 506.117L1075.71 519.01L1075.35 501.878L1058.42 504.5L1069.16 491.146L1054.5 482.27L1071.31 478.941L1065.79 462.721L1080.8 470.976L1087 455Z" fill="#F9EFCD"/>
<path d="M1401 451.5C1410.2 429.1 1485.83 454.5 1522.5 470V597C1385 546 1389.5 502.5 1421 490C1452.5 477.5 1389.5 479.5 1401 451.5Z" fill="#EB804B"/>
<g filter="url(#filter2_d_13_89)">
<path d="M958.944 373.647C941.019 387.082 904.42 390.813 888.361 391L885 343.978C886.12 343.605 891.722 341.179 905.167 334.462C921.972 326.065 944.38 289.12 963.986 277.364C983.593 265.609 1053.62 293.598 1095.07 232.022C1136.52 170.446 1177.42 158.69 1245.2 165.967C1312.98 173.245 1339.31 139.098 1383 99.3533C1426.7 59.6087 1465.5 8.39674 1512 0C1549.2 -6.71739 1596.44 9.78804 1611 -21V198.995C1599.05 215.415 1564.28 247.696 1520.81 245.457C1466.47 242.658 1424.46 261.69 1412.69 277.364C1400.93 293.038 1362.84 305.913 1339.31 308.152C1315.78 310.391 1231.75 295.837 1177.42 334.462C1123.08 373.087 1064.82 364.13 1053.62 360.212C1042.41 356.293 981.352 356.853 958.944 373.647Z" fill="#F1B154"/>
</g>
<path d="M1209 203L1218.01 226.237L1239.85 214.23L1231.82 237.824L1256.27 242.665L1234.95 255.576L1250.57 275L1225.94 271.187L1225.42 296.105L1209 277.352L1192.58 296.105L1192.06 271.187L1167.43 275L1183.05 255.576L1161.73 242.665L1186.18 237.824L1178.15 214.23L1199.99 226.237L1209 203Z" fill="#F9EFCD"/>
<path d="M1399.5 139.5C1459.9 151.1 1503.33 44.6667 1517.5 31L1528.5 201.5C1528.83 210.333 1518.7 229.2 1475.5 234C1421.5 240 1436 210.5 1454.5 201.5C1473 192.5 1474.5 177 1407.5 183C1340.5 189 1324 125 1399.5 139.5Z" fill="#EB804B"/>
<path d="M1365.72 196.547C1332.92 192.147 1320.72 215.38 1318.72 227.547C1308.22 252.547 1416.22 234.047 1421.72 219.047C1427.22 204.047 1406.72 202.047 1365.72 196.547Z" fill="#EB804B"/>
<g filter="url(#filter3_d_13_89)">
<path d="M948.388 247.434C901.801 267.846 878.582 317.65 872.796 340L842 300.837C846.479 224.886 887.915 200.557 897.434 196.404C906.952 192.25 953.987 175.636 964.066 137.66C974.145 99.6838 1007.18 62.8946 1054.78 39.7531C1092.85 21.2398 1106.48 -10.2881 1108.53 -23.7379C1189.16 -23.9357 1349.52 -24.2126 1345.94 -23.7379C1341.46 -23.1445 1246.83 5.93077 1240.11 29.6657C1233.39 53.4007 1203.72 82.476 1182.44 94.3434C1161.16 106.211 1083.89 113.331 1064.85 153.087C1045.82 192.843 1006.62 221.919 948.388 247.434Z" fill="#F1B154"/>
</g>
<path d="M981 176L984.38 184.714L992.57 180.211L989.558 189.059L998.727 190.874L990.732 195.716L996.588 203L987.352 201.57L987.156 210.914L981 203.882L974.844 210.914L974.648 201.57L965.412 203L971.268 195.716L963.273 190.874L972.442 189.059L969.43 180.211L977.62 184.714L981 176Z" fill="#F9EFCD"/>
<path d="M1143.27 54.5C1204.97 27.5097 1249.77 -17 1229.77 -38.5L1121.77 -78C1126.27 -57.8333 1154.57 3.8 1073.77 45C972.773 96.5 1029.77 115.5 1042.77 92C1055.77 68.5 1103.27 72 1143.27 54.5Z" fill="#EB804B"/>
<path d="M1131.91 70.6386C1105.51 88.6386 1090.41 74.6386 1076.41 88.6386C1056.91 110.139 1106.91 99.6386 1131.91 94.6386C1156.91 89.6386 1164.91 48.1386 1131.91 70.6386Z" fill="#EB804B"/>
<g filter="url(#filter4_d_13_89)">
<path d="M641 463.848L632.039 439.737C624.385 445.157 603.476 452.745 581.073 439.737C553.07 423.476 475.782 397.683 436.018 420.112C396.253 442.54 356.489 443.101 308.884 426.28C261.279 409.458 225.995 404.972 200.792 407.776C175.589 410.58 135.825 435.812 58.5363 420.112C-3.29441 407.552 -66.9174 419.738 -91 427.401V633.745C-91 633.745 -21.5524 638.791 22.6924 604.027C66.9373 569.262 102.221 554.123 140.865 568.701C179.51 583.28 225.995 569.823 245.037 559.73C264.079 549.637 273.04 535.619 326.806 544.03C380.572 552.441 418.656 547.955 433.217 544.03C447.779 540.105 531.788 490.201 578.273 490.762C615.461 491.211 635.586 473.006 641 463.848Z" fill="#F1B154"/>
</g>
<path d="M404 468L409.633 482.523L423.284 475.019L418.263 489.765L433.544 492.791L420.22 500.86L429.981 513L414.587 510.617L414.261 526.191L404 514.47L393.739 526.191L393.413 510.617L378.019 513L387.78 500.86L374.456 492.791L389.737 489.765L384.716 475.019L398.367 482.523L404 468Z" fill="#F9EFCD"/>
<path d="M101.508 451.5C92.3079 429.1 16.6746 454.5 -19.9921 470V597C117.508 546 113.008 502.5 81.5079 490C50.0079 477.5 113.008 479.5 101.508 451.5Z" fill="#EB804B"/>
<g filter="url(#filter5_d_13_89)">
<path d="M562.612 247.434C609.199 267.846 632.418 317.65 638.204 340L669 300.837C664.521 224.886 623.085 200.557 613.566 196.404C604.048 192.25 557.013 175.636 546.934 137.66C536.855 99.6838 503.819 62.8946 456.225 39.7531C418.149 21.2398 404.524 -10.2881 402.471 -23.7379C321.841 -23.9357 161.475 -24.2126 165.059 -23.7379C169.539 -23.1445 264.167 5.93077 270.887 29.6657C277.606 53.4007 307.282 82.476 328.56 94.3434C349.837 106.211 427.108 113.331 446.146 153.087C465.184 192.843 504.379 221.919 562.612 247.434Z" fill="#F1B154"/>
</g>
<path d="M533 176L536.38 184.714L544.57 180.211L541.558 189.059L550.727 190.874L542.732 195.716L548.588 203L539.352 201.57L539.156 210.914L533 203.882L526.844 210.914L526.648 201.57L517.412 203L523.268 195.716L515.273 190.874L524.442 189.059L521.43 180.211L529.62 184.714L533 176Z" fill="#F9EFCD"/>
<path d="M359.235 54.5C297.542 27.5097 252.735 -17 272.735 -38.5L380.735 -78C376.235 -57.8333 347.935 3.8 428.735 45C529.735 96.5 472.735 115.5 459.735 92C446.735 68.5 399.235 72 359.235 54.5Z" fill="#EB804B"/>
<path d="M370.597 70.6386C396.997 88.6386 412.097 74.6386 426.097 88.6386C445.597 110.139 395.597 99.6386 370.597 94.6386C345.597 89.6386 337.597 48.1386 370.597 70.6386Z" fill="#EB804B"/>
<defs>
<filter id="filter0_d_13_89" x="-100" y="-21" width="726" height="425" filterUnits="userSpaceOnUse" color-interpolation-filters="sRGB">
<feFlood flood-opacity="0" result="BackgroundImageFix"/>
<feColorMatrix in="SourceAlpha" type="matrix" values="0 0 0 0 0 0 0 0 0 0 0 0 0 0 0 0 0 0 127 0" result="hardAlpha"/>
<feOffset dy="13"/>
<feComposite in2="hardAlpha" operator="out"/>
<feColorMatrix type="matrix" values="0 0 0 0 0.337228 0 0 0 0 0.17995 0 0 0 0 0.4575 0 0 0 1 0"/>
<feBlend mode="normal" in2="BackgroundImageFix" result="effect1_dropShadow_13_89"/>
<feBlend mode="normal" in="SourceGraphic" in2="effect1_dropShadow_13_89" result="shape"/>
</filter>
<filter id="filter1_d_13_89" x="870" y="407" width="732" height="240" filterUnits="userSpaceOnUse" color-interpolation-filters="sRGB">
<feFlood flood-opacity="0" result="BackgroundImageFix"/>
<feColorMatrix in="SourceAlpha" type="matrix" values="0 0 0 0 0 0 0 0 0 0 0 0 0 0 0 0 0 0 127 0" result="hardAlpha"/>
<feOffset dy="13"/>
<feComposite in2="hardAlpha" operator="out"/>
<feColorMatrix type="matrix" values="0 0 0 0 0.337228 0 0 0 0 0.17995 0 0 0 0 0.4575 0 0 0 1 0"/>
<feBlend mode="normal" in2="BackgroundImageFix" result="effect1_dropShadow_13_89"/>
<feBlend mode="normal" in="SourceGraphic" in2="effect1_dropShadow_13_89" result="shape"/>
</filter>
<filter id="filter2_d_13_89" x="885" y="-21" width="726" height="425" filterUnits="userSpaceOnUse" color-interpolation-filters="sRGB">
<feFlood flood-opacity="0" result="BackgroundImageFix"/>
<feColorMatrix in="SourceAlpha" type="matrix" values="0 0 0 0 0 0 0 0 0 0 0 0 0 0 0 0 0 0 127 0" result="hardAlpha"/>
<feOffset dy="13"/>
<feComposite in2="hardAlpha" operator="out"/>
<feColorMatrix type="matrix" values="0 0 0 0 0.337228 0 0 0 0 0.17995 0 0 0 0 0.4575 0 0 0 1 0"/>
<feBlend mode="normal" in2="BackgroundImageFix" result="effect1_dropShadow_13_89"/>
<feBlend mode="normal" in="SourceGraphic" in2="effect1_dropShadow_13_89" result="shape"/>
</filter>
<filter id="filter3_d_13_89" x="842" y="-24" width="504" height="377" filterUnits="userSpaceOnUse" color-interpolation-filters="sRGB">
<feFlood flood-opacity="0" result="BackgroundImageFix"/>
<feColorMatrix in="SourceAlpha" type="matrix" values="0 0 0 0 0 0 0 0 0 0 0 0 0 0 0 0 0 0 127 0" result="hardAlpha"/>
<feOffset dy="13"/>
<feComposite in2="hardAlpha" operator="out"/>
<feColorMatrix type="matrix" values="0 0 0 0 0.337228 0 0 0 0 0.17995 0 0 0 0 0.4575 0 0 0 1 0"/>
<feBlend mode="normal" in2="BackgroundImageFix" result="effect1_dropShadow_13_89"/>
<feBlend mode="normal" in="SourceGraphic" in2="effect1_dropShadow_13_89" result="shape"/>
</filter>
<filter id="filter4_d_13_89" x="-91" y="407" width="732" height="240" filterUnits="userSpaceOnUse" color-interpolation-filters="sRGB">
<feFlood flood-opacity="0" result="BackgroundImageFix"/>
<feColorMatrix in="SourceAlpha" type="matrix" values="0 0 0 0 0 0 0 0 0 0 0 0 0 0 0 0 0 0 127 0" result="hardAlpha"/>
<feOffset dy="13"/>
<feComposite in2="hardAlpha" operator="out"/>
<feColorMatrix type="matrix" values="0 0 0 0 0.337228 0 0 0 0 0.17995 0 0 0 0 0.4575 0 0 0 1 0"/>
<feBlend mode="normal" in2="BackgroundImageFix" result="effect1_dropShadow_13_89"/>
<feBlend mode="normal" in="SourceGraphic" in2="effect1_dropShadow_13_89" result="shape"/>
</filter>
<filter id="filter5_d_13_89" x="165" y="-24" width="504" height="377" filterUnits="userSpaceOnUse" color-interpolation-filters="sRGB">
<feFlood flood-opacity="0" result="BackgroundImageFix"/>
<feColorMatrix in="SourceAlpha" type="matrix" values="0 0 0 0 0 0 0 0 0 0 0 0 0 0 0 0 0 0 127 0" result="hardAlpha"/>
<feOffset dy="13"/>
<feComposite in2="hardAlpha" operator="out"/>
<feColorMatrix type="matrix" values="0 0 0 0 0.337228 0 0 0 0 0.17995 0 0 0 0 0.4575 0 0 0 1 0"/>
<feBlend mode="normal" in2="BackgroundImageFix" result="effect1_dropShadow_13_89"/>
<feBlend mode="normal" in="SourceGraphic" in2="effect1_dropShadow_13_89" result="shape"/>
</filter>
</defs>
</svg>
