<svg width="719" height="779" viewBox="0 0 719 779" fill="none" xmlns="http://www.w3.org/2000/svg">
<path d="M314.662 221.96L245.358 269.651L487.481 621.502L556.785 573.811L314.662 221.96Z" fill="#562E75"/>
<ellipse cx="513.226" cy="594.703" rx="80.5248" ry="26.1485" transform="rotate(-15 513.226 594.703)" fill="#CA8F2D"/>
<path d="M326.584 239.286L258.197 288.31L486.393 619.922L555.697 572.231L326.584 239.286Z" fill="#D9D9D9"/>
<path d="M364.387 294.221L295.083 341.912L486.393 619.922L556.024 572.706L364.387 294.221Z" fill="#D44141"/>
<path d="M491.756 588.232C490.812 588.537 490.048 587.428 490.67 586.654L499.755 575.351C499.966 575.089 500.03 574.738 499.927 574.418L495.48 560.615C495.176 559.67 496.285 558.907 497.059 559.529L508.362 568.613C508.624 568.824 508.975 568.889 509.295 568.786L523.098 564.339C524.043 564.035 524.806 565.144 524.184 565.917L515.099 577.221C514.889 577.483 514.824 577.833 514.927 578.154L519.374 591.957C519.678 592.901 518.569 593.664 517.795 593.043L506.492 583.958C506.23 583.747 505.879 583.682 505.559 583.786L491.756 588.232Z" fill="#D9D9D9"/>
<path d="M471.004 558.076C470.059 558.38 469.296 557.271 469.918 556.497L479.002 545.194C479.213 544.932 479.278 544.581 479.175 544.261L474.728 530.458C474.424 529.513 475.533 528.75 476.306 529.372L487.609 538.457C487.872 538.667 488.222 538.732 488.543 538.629L502.345 534.182C503.29 533.878 504.053 534.987 503.432 535.761L494.347 547.064C494.136 547.326 494.071 547.677 494.175 547.997L498.621 561.8C498.926 562.744 497.816 563.508 497.043 562.886L485.74 553.801C485.477 553.59 485.127 553.526 484.807 553.629L471.004 558.076Z" fill="#B31515"/>
<path d="M450.252 527.919C449.307 528.223 448.544 527.114 449.165 526.34L458.25 515.037C458.461 514.775 458.526 514.424 458.422 514.104L453.976 500.301C453.671 499.357 454.781 498.593 455.554 499.215L466.857 508.3C467.12 508.511 467.47 508.575 467.79 508.472L481.593 504.026C482.538 503.721 483.301 504.83 482.679 505.604L473.595 516.907C473.384 517.169 473.319 517.52 473.422 517.84L477.869 531.643C478.173 532.588 477.064 533.351 476.291 532.729L464.988 523.644C464.725 523.434 464.375 523.369 464.054 523.472L450.252 527.919Z" fill="#D9D9D9"/>
<path d="M429.499 497.761C428.555 498.065 427.791 496.956 428.413 496.183L437.498 484.88C437.709 484.617 437.773 484.267 437.67 483.946L433.224 470.144C432.919 469.199 434.028 468.436 434.802 469.057L446.105 478.142C446.367 478.353 446.718 478.418 447.038 478.315L460.841 473.868C461.786 473.564 462.549 474.673 461.927 475.446L452.843 486.749C452.632 487.012 452.567 487.362 452.67 487.682L457.117 501.485C457.421 502.43 456.312 503.193 455.539 502.571L444.235 493.487C443.973 493.276 443.622 493.211 443.302 493.314L429.499 497.761Z" fill="#B31515"/>
<path d="M408.747 467.604C407.802 467.909 407.039 466.8 407.661 466.026L416.745 454.723C416.956 454.461 417.021 454.11 416.918 453.79L412.471 439.987C412.167 439.042 413.276 438.279 414.049 438.901L425.353 447.985C425.615 448.196 425.966 448.261 426.286 448.158L440.089 443.711C441.033 443.407 441.796 444.516 441.175 445.289L432.09 456.593C431.879 456.855 431.815 457.205 431.918 457.526L436.364 471.329C436.669 472.273 435.56 473.036 434.786 472.415L423.483 463.33C423.221 463.119 422.87 463.054 422.55 463.158L408.747 467.604Z" fill="#D9D9D9"/>
<path d="M387.994 437.448C387.05 437.752 386.287 436.643 386.908 435.869L395.993 424.566C396.204 424.304 396.269 423.953 396.165 423.633L391.719 409.83C391.414 408.885 392.523 408.122 393.297 408.744L404.6 417.829C404.862 418.039 405.213 418.104 405.533 418.001L419.336 413.554C420.281 413.25 421.044 414.359 420.422 415.133L411.338 426.436C411.127 426.698 411.062 427.049 411.165 427.369L415.612 441.172C415.916 442.117 414.807 442.88 414.034 442.258L402.73 433.173C402.468 432.963 402.118 432.898 401.797 433.001L387.994 437.448Z" fill="#B31515"/>
<path d="M367.242 407.29C366.298 407.594 365.534 406.485 366.156 405.712L375.241 394.408C375.452 394.146 375.516 393.796 375.413 393.475L370.967 379.672C370.662 378.728 371.771 377.965 372.545 378.586L383.848 387.671C384.11 387.882 384.461 387.946 384.781 387.843L398.584 383.397C399.529 383.092 400.292 384.201 399.67 384.975L390.585 396.278C390.375 396.54 390.31 396.891 390.413 397.211L394.86 411.014C395.164 411.959 394.055 412.722 393.281 412.1L381.978 403.016C381.716 402.805 381.365 402.74 381.045 402.843L367.242 407.29Z" fill="#D9D9D9"/>
<path d="M346.49 377.133C345.545 377.437 344.782 376.328 345.404 375.555L354.488 364.252C354.699 363.989 354.764 363.639 354.661 363.319L350.214 349.516C349.91 348.571 351.019 347.808 351.792 348.43L363.096 357.514C363.358 357.725 363.708 357.79 364.029 357.687L377.832 353.24C378.776 352.936 379.539 354.045 378.918 354.818L369.833 366.121C369.622 366.384 369.557 366.734 369.661 367.054L374.107 380.857C374.412 381.802 373.303 382.565 372.529 381.944L361.226 372.859C360.964 372.648 360.613 372.583 360.293 372.686L346.49 377.133Z" fill="#B31515"/>
<path d="M325.738 346.976C324.793 347.281 324.03 346.172 324.652 345.398L333.736 334.095C333.947 333.833 334.012 333.482 333.909 333.162L329.462 319.359C329.158 318.414 330.267 317.651 331.04 318.273L342.343 327.357C342.606 327.568 342.956 327.633 343.276 327.53L357.079 323.083C358.024 322.779 358.787 323.888 358.165 324.661L349.081 335.965C348.87 336.227 348.805 336.578 348.908 336.898L353.355 350.701C353.659 351.645 352.55 352.408 351.777 351.787L340.474 342.702C340.211 342.491 339.861 342.427 339.541 342.53L325.738 346.976Z" fill="#D9D9D9"/>
<path d="M549.607 577.041L358.008 298.611L361.777 296.017L553.402 574.484L549.607 577.041Z" fill="#DACB4A"/>
<path d="M547.715 578.328L356.122 299.908L358.007 298.611L549.599 577.031L547.715 578.328Z" fill="#D9D9D9" fill-opacity="0.5"/>
<path d="M545.876 579.251L354.585 301.27L356.058 300.256L547.349 578.237L545.876 579.251Z" stroke="#B31515" stroke-width="0.5"/>
<path d="M496.543 612.938L305.232 334.927L301.463 337.521L492.773 615.532L496.543 612.938Z" fill="#DACB4A"/>
<path d="M498.428 611.641L307.117 333.63L305.233 334.927L496.543 612.938L498.428 611.641Z" fill="#D9D9D9" fill-opacity="0.5"/>
<path d="M498.492 611.293L499.965 610.28L308.938 332.681L307.465 333.694L498.492 611.293Z" stroke="#B31515" stroke-width="0.5"/>
<path d="M230.584 252.565L239.863 282.929L270.227 292.208L239.863 301.486L230.584 331.85L221.306 301.486L190.942 292.208L221.306 282.929L230.584 252.565Z" fill="white"/>
<path d="M325.065 182.531L330.477 200.244L348.19 205.656L330.477 211.068L325.065 228.78L319.653 211.068L301.94 205.656L319.653 200.244L325.065 182.531Z" fill="white"/>
<path d="M233.227 154.782L241.887 183.121L270.227 191.781L241.887 200.441L233.227 228.781L224.567 200.441L196.228 191.781L224.567 183.121L233.227 154.782Z" fill="white"/>
<mask id="mask0_159_183" style="mask-type:alpha" maskUnits="userSpaceOnUse" x="347" y="503" width="408" height="257">
<path d="M624.797 564.222C646.788 573.756 720.181 575.108 754.128 574.592L719.176 759.88C716.886 758.139 706.376 752.192 682.652 742.33C652.997 730.003 622.617 730.444 527.856 697.42C433.095 664.397 436.663 654.409 408.837 641.306C386.577 630.823 387.39 618.184 390.579 613.175C382.037 609.88 363.891 601.184 359.646 592.752C355.402 584.321 364.89 577.845 370.164 575.661C350.394 567.443 344.813 561.34 347.909 547.898C350.387 537.144 373.645 541.345 384.965 544.789C380.508 542.639 371.596 536.544 371.604 529.364C371.614 520.389 378.564 513.285 394.276 516.248C406.845 518.62 491.445 545.425 532.174 558.532C526.521 555.782 511.182 547.278 495.047 535.258C474.878 520.232 484.68 506.933 489.73 503.958C494.779 500.983 545.83 521.834 559.947 527.302C574.064 532.771 597.31 552.304 624.797 564.222Z" fill="#D9D9D9"/>
</mask>
<g mask="url(#mask0_159_183)">
<path d="M624.797 564.222C646.788 573.756 720.181 575.108 754.128 574.592L719.176 759.88C716.886 758.139 706.376 752.192 682.652 742.33C652.997 730.003 622.617 730.444 527.856 697.42C433.095 664.397 436.663 654.409 408.837 641.306C386.577 630.823 387.39 618.184 390.579 613.175C382.037 609.88 363.891 601.184 359.646 592.752C355.402 584.321 364.89 577.845 370.164 575.661C350.394 567.443 344.813 561.34 347.909 547.898C350.387 537.144 373.645 541.345 384.965 544.789C380.508 542.639 371.596 536.544 371.604 529.364C371.614 520.389 378.564 513.285 394.276 516.248C406.845 518.62 491.445 545.425 532.174 558.532C526.521 555.782 511.182 547.278 495.047 535.258C474.878 520.232 484.68 506.933 489.73 503.958C494.779 500.983 545.83 521.834 559.947 527.302C574.064 532.771 597.31 552.304 624.797 564.222Z" fill="#FFAF8C"/>
<path d="M507.05 584.651C495.249 573.448 418.487 551.487 381.581 541.907L377.042 542.173L386.488 545.638C409.682 550.574 496.582 586.604 502.879 588.913C507.917 590.761 507.759 586.842 507.05 584.651Z" fill="#FE804C"/>
<path d="M500.509 619.324C478.985 604.941 401.959 582.593 366.137 573.218C378.833 577.296 490.787 620.296 496.441 623.045C500.963 625.245 501.037 621.481 500.509 619.324Z" fill="#FE804C"/>
<path d="M490.82 652.843C480.532 645.516 419.413 622.916 390.14 612.531C398.328 619.686 475.241 652.149 483.501 655.951C490.108 658.993 491.133 655.147 490.82 652.843Z" fill="#FE804C"/>
<path d="M502.038 521.989C491.366 519.078 491.464 507.651 492.847 502.302L493.593 501.32L518.648 508.291L520.846 511.511C518.976 518.452 515.378 525.628 502.038 521.989Z" fill="#BB98F2"/>
</g>
</svg>
