<svg width="346" height="253" viewBox="0 0 346 253" fill="none" xmlns="http://www.w3.org/2000/svg">
<mask id="mask0_96_64" style="mask-type:alpha" maskUnits="userSpaceOnUse" x="-46" y="21" width="370" height="232">
<path d="M71.7709 75.4263C51.7561 83.905 -14.8115 84.5716 -45.5934 83.8451L-15.3086 252.142C-13.2188 250.58 -3.64174 245.267 17.9477 236.505C44.9346 225.552 72.4818 226.183 158.668 196.957C244.855 167.731 241.696 158.647 267.029 146.976C287.296 137.639 286.655 126.171 283.801 121.605C291.573 118.682 308.095 110.933 312.009 103.32C315.922 95.7064 307.367 89.7609 302.601 87.7398C320.592 80.438 325.7 74.9465 322.994 62.7327C320.829 52.9616 299.705 56.5935 289.414 59.6308C293.472 57.7152 301.6 52.256 301.648 45.7446C301.707 37.6054 295.458 31.1095 281.187 33.6775C269.771 35.7319 192.846 59.3964 155.81 70.9719C160.958 68.5215 174.934 60.9263 189.658 50.1482C208.062 36.6757 199.274 24.5404 194.718 21.8042C190.161 19.0679 143.707 37.588 130.863 42.4394C118.019 47.2907 96.7894 64.8278 71.7709 75.4263Z" fill="#D9D9D9"/>
</mask>
<g mask="url(#mask0_96_64)">
<path d="M71.7709 75.4263C51.7561 83.905 -14.8115 84.5716 -45.5934 83.8451L-15.3086 252.142C-13.2188 250.58 -3.64174 245.267 17.9477 236.505C44.9346 225.552 72.4818 226.183 158.668 196.957C244.855 167.731 241.696 158.647 267.029 146.976C287.296 137.639 286.655 126.171 283.801 121.605C291.573 118.682 308.095 110.933 312.009 103.32C315.922 95.7064 307.367 89.7609 302.601 87.7398C320.592 80.438 325.7 74.9465 322.994 62.7327C320.829 52.9616 299.705 56.5935 289.414 59.6308C293.472 57.7152 301.6 52.256 301.648 45.7446C301.707 37.6054 295.458 31.1095 281.187 33.6775C269.771 35.7319 192.846 59.3964 155.81 70.9719C160.958 68.5215 174.934 60.9263 189.658 50.1482C208.062 36.6757 199.274 24.5404 194.718 21.8042C190.161 19.0679 143.707 37.588 130.863 42.4394C118.019 47.2907 96.7894 64.8278 71.7709 75.4263Z" fill="#FFAF8C"/>
<path d="M178.396 94.8489C189.183 84.7792 258.963 65.4487 292.504 57.0422L296.618 57.3179L288.026 60.3882C266.955 64.688 187.874 96.6996 182.146 98.7464C177.563 100.384 177.737 96.8303 178.396 94.8489Z" fill="#FE804C"/>
<path d="M184.063 126.343C203.693 113.463 273.714 93.7841 306.272 85.5546C294.727 89.1562 192.872 127.298 187.724 129.748C183.606 131.709 183.568 128.295 184.063 126.343Z" fill="#FE804C"/>
<path d="M192.595 156.814C201.98 150.248 257.579 130.218 284.205 121.024C276.725 127.45 206.728 156.303 199.209 159.688C193.193 162.396 192.293 158.9 192.595 156.814Z" fill="#FE804C"/>
<path d="M183.418 38.062C193.119 35.5036 193.117 25.1402 191.903 20.2782L191.234 19.3826L168.459 25.5129L166.442 28.4162C168.085 34.7249 171.293 41.26 183.418 38.062Z" fill="#BB98F2"/>
</g>
</svg>
