<svg width="556" height="298" viewBox="0 0 556 298" fill="none" xmlns="http://www.w3.org/2000/svg">
<mask id="mask0_96_64" style="mask-type:alpha" maskUnits="userSpaceOnUse" x="37" y="21" width="494" height="277">
<path d="M278.771 75.4268C205.5 121.605 67.7821 88.467 37.0001 87.7405L37 297.501C39.0899 295.94 203.358 245.267 224.948 236.505C251.935 225.553 279.482 226.184 365.668 196.958C451.855 167.732 448.696 158.648 474.029 146.977C494.296 137.64 493.655 126.172 490.801 121.605C498.573 118.683 515.095 110.934 519.009 103.32C522.922 95.707 514.367 89.7614 509.601 87.7404C527.592 80.4386 532.7 74.9471 529.994 62.7333C527.829 52.9622 506.705 56.5941 496.414 59.6314C500.472 57.7157 508.6 52.2566 508.648 45.7452C508.708 37.606 502.458 31.1101 488.187 33.6781C476.771 35.7325 399.846 59.397 362.81 70.9725C367.958 68.5221 381.934 60.9269 396.658 50.1488C415.062 36.6762 406.274 24.541 401.718 21.8048C397.161 19.0685 350.707 37.5885 337.863 42.4399C325.019 47.2913 301.757 60.9398 278.771 75.4268Z" fill="#FFAF8C"/>
</mask>
<g mask="url(#mask0_96_64)">
<path d="M278.771 75.4268C205.5 121.605 67.7821 88.467 37.0001 87.7405L37 297.501C39.0899 295.94 203.358 245.267 224.948 236.505C251.935 225.553 279.482 226.184 365.668 196.958C451.855 167.732 448.696 158.648 474.029 146.977C494.296 137.64 493.655 126.172 490.801 121.605C498.573 118.683 515.095 110.934 519.009 103.32C522.922 95.707 514.367 89.7614 509.601 87.7404C527.592 80.4386 532.7 74.9471 529.994 62.7333C527.829 52.9622 506.705 56.5941 496.414 59.6314C500.472 57.7157 508.6 52.2566 508.648 45.7452C508.708 37.606 502.458 31.1101 488.187 33.6781C476.771 35.7325 399.846 59.397 362.81 70.9725C367.958 68.5221 381.934 60.9269 396.658 50.1488C415.062 36.6762 406.274 24.541 401.718 21.8048C397.161 19.0685 350.707 37.5885 337.863 42.4399C325.019 47.2913 301.757 60.9398 278.771 75.4268Z" fill="#FFAF8C"/>
<path d="M385.396 94.8498C396.183 84.7802 465.963 65.4497 499.504 57.0432L503.618 57.3189L495.026 60.3891C473.955 64.689 394.874 96.7006 389.146 98.7474C384.563 100.385 384.737 96.8313 385.396 94.8498Z" fill="#FE804C"/>
<path d="M391.064 126.344C410.693 113.464 480.715 93.7851 513.272 85.5556C501.727 89.1571 399.872 127.299 394.725 129.749C390.607 131.71 390.568 128.296 391.064 126.344Z" fill="#FE804C"/>
<path d="M399.595 156.815C408.98 150.249 464.579 130.219 491.205 121.024C483.725 127.451 413.728 156.304 406.209 159.689C400.193 162.397 399.293 158.901 399.595 156.815Z" fill="#FE804C"/>
<path d="M390.418 38.063C400.119 35.5046 400.117 25.1411 398.903 20.2792L398.234 19.3836L375.459 25.5139L373.442 28.4171C375.085 34.7258 378.293 41.261 390.418 38.063Z" fill="#BB98F2"/>
</g>
</svg>
