<svg width="760" height="1420" viewBox="0 0 760 1420" fill="none" xmlns="http://www.w3.org/2000/svg">
<mask id="mask0_193_95" style="mask-type:alpha" maskUnits="userSpaceOnUse" x="6" y="0" width="545" height="980">
<path d="M247.34 979.095C393.21 850.652 500.682 881.911 536.185 913.597C523.083 901.028 497.114 869.393 498.049 843.397C499.218 810.903 537.417 676.6 547.792 604.653C558.166 532.706 539.682 529.61 520.275 415.507C504.75 324.225 461.05 330.531 441.14 345.095C423.638 249.402 373.763 257.243 351.013 273.125C337.019 195.051 284.067 198.609 259.34 210.147C258.522 175.142 220.402 101.943 188.181 48.2747C155.96 -5.39362 133.501 -13.5105 113.309 23.3849C93.1171 60.2804 160.106 158.63 154.469 185.101C148.858 211.445 161.433 264.13 171.683 307.072L171.831 307.693C180.052 342.136 162.853 399.648 153.225 424.098C152.384 393.593 108.043 266.861 72.1941 237.674C36.3454 208.487 9.64309 247.349 6.59111 257.333C3.53913 267.317 29.2942 314.452 23.5107 368.923C17.7273 423.393 30.6205 443.96 48.3576 494.553C66.0947 545.146 57.665 531.602 75.5146 656.697C89.7942 756.773 196.015 913.327 247.34 979.095Z" fill="#FFAF8C"/>
</mask>
<g mask="url(#mask0_193_95)">
<path d="M247.34 979.095C393.21 850.652 500.682 881.911 536.185 913.597C523.083 901.028 497.114 869.393 498.049 843.397C499.218 810.903 537.417 676.6 547.792 604.653C558.166 532.706 539.682 529.61 520.275 415.507C504.75 324.225 461.05 330.531 441.14 345.095C423.638 249.402 373.763 257.243 351.013 273.125C337.019 195.051 284.067 198.609 259.34 210.147C258.522 175.142 220.402 101.943 188.181 48.2747C155.96 -5.39362 133.501 -13.5105 113.309 23.3849C93.1171 60.2804 160.106 158.63 154.469 185.101C148.858 211.445 161.433 264.13 171.683 307.072L171.831 307.693C180.052 342.136 162.853 399.648 153.225 424.098C152.384 393.593 108.043 266.861 72.1941 237.674C36.3454 208.487 9.64309 247.349 6.59111 257.333C3.53913 267.317 29.2942 314.452 23.5107 368.923C17.7273 423.393 30.6205 443.96 48.3576 494.553C66.0947 545.146 57.665 531.602 75.5146 656.697C89.7942 756.773 196.015 913.327 247.34 979.095Z" fill="#FFAF8C"/>
<path d="M38.1562 390.717C42.6227 377.94 40.2461 341.394 38.4995 324.718L38.5203 320.718L14.9996 324.596L14.9528 333.595C21.2633 350.829 14.3273 389.76 10.0706 407.071C36.1541 487.208 27.0398 509.161 37.0483 603.714C45.0551 679.357 107.646 777.25 137.941 816.742C121.324 743.154 80.0529 602.938 81.839 547.946C83.625 492.955 32.5731 406.688 38.1562 390.717Z" fill="url(#paint0_linear_193_95)"/>
<mask id="mask1_193_95" style="mask-type:alpha" maskUnits="userSpaceOnUse" x="5" y="-8" width="183" height="333">
<path d="M65.799 313.642C62.9866 316.027 35.921 322.153 22.7398 324.918C22.7731 318.518 10.9654 281.523 5.05733 263.825C11.1259 250.656 26.9849 245.772 34.1558 244.976C66.0669 262.142 69.3146 310.66 65.799 313.642Z" fill="#FDD6CF"/>
<path d="M133.249 34.9888C125.337 18.1474 130.737 5.30869 134.426 0.994487C136.941 -1.8258 143.77 -7.45702 150.97 -7.41957C158.17 -7.38212 178.448 29.0572 187.686 47.2722C178.33 51.5569 158.717 60.5216 155.109 62.1029C150.598 64.0795 143.14 56.0406 133.249 34.9888Z" fill="#FDD6CF"/>
</mask>
<g mask="url(#mask1_193_95)">
<path d="M65.799 313.642C62.9866 316.027 35.921 322.153 22.7398 324.918C22.7731 318.518 10.9654 281.523 5.05733 263.825C11.1259 250.656 26.9849 245.772 34.1558 244.976C66.0669 262.142 69.3146 310.66 65.799 313.642Z" fill="#FDD6CF"/>
<path d="M133.249 34.9888C125.337 18.1474 130.737 5.30869 134.426 0.994487C136.941 -1.8258 143.77 -7.45702 150.97 -7.41957C158.17 -7.38212 178.448 29.0572 187.686 47.2722C178.33 51.5569 158.717 60.5216 155.109 62.1029C150.598 64.0795 143.14 56.0406 133.249 34.9888Z" fill="#FDD6CF"/>
<path d="M153 54C148.2 52.8 135.667 34.1667 130 25C128.833 26.1667 127.2 30.6 130 39C132.8 47.4 146.5 61.5 153 67.5C165.167 61 188.4 48.2 184 49C178.5 50 159 55.5 153 54Z" fill="#FFE6E2"/>
<path d="M25 320C27.7999 323.2 54.8333 311.667 68 305.5L74 316L19 336L5 257C10.5 276.667 22.2001 316.8 25 320Z" fill="#FFE6E2"/>
</g>
<path d="M472.578 453.26C489.647 478.549 529.809 505.058 547.757 515.151C553.549 523.015 565.505 544.444 566.986 567.252C568.468 590.06 520.631 763.514 496.528 847.389C254.494 757.129 233.699 525.518 234.081 452.019C234.463 378.52 299.671 434.86 328.244 421.008C356.816 407.157 367.824 405.714 400.701 429.385C433.578 453.057 451.242 421.648 472.578 453.26Z" fill="#FFAA85"/>
<path d="M281.371 204.262C277.773 203.843 265.949 206.733 259.605 208.866C268.334 260.912 271.776 318.546 272.643 344.218C275.319 342.399 279.132 327.152 272.973 280.719C265.275 222.678 285.868 204.785 281.371 204.262Z" fill="#FFAA85"/>
<path d="M368.825 262.935L350.289 269.839L375.618 349.254C368.957 322.419 368.238 279.599 368.825 262.935Z" fill="#FFAA85"/>
<path d="M459.184 336.688C460.003 333.092 448.936 338.02 440.905 343.811L451.417 388.149C450.489 374.144 458.161 341.183 459.184 336.688Z" fill="#FFAA85"/>
<path d="M130.253 514.98C136.388 489.011 137.004 402.513 136.546 362.51L163.421 386.65C163.26 417.45 141.242 485.036 130.253 514.98Z" fill="#FFAA85"/>
<path d="M338.343 882.567C269.886 893.411 170.099 833.025 128.762 801.476L239.775 991.556L553.143 921.685L519.341 883.509C495.43 866.384 423.915 869.012 338.343 882.567Z" fill="#FFAA85"/>
<path d="M168.257 179.391C159.934 164.547 130.03 62.6904 116.118 13.6174C108.798 11.0793 93.3499 7.49887 90.1187 13.4821C86.8875 19.4654 116.002 100.118 130.963 139.696C130.274 143.859 132.816 168.006 148.487 231.289C164.158 294.571 154.198 414.988 147.259 467.285C166.111 431.716 201.35 353.865 191.489 327.014C179.164 293.449 178.66 197.945 168.257 179.391Z" fill="url(#paint1_linear_193_95)"/>
</g>
<mask id="mask2_193_95" style="mask-type:alpha" maskUnits="userSpaceOnUse" x="206" y="939" width="548" height="479">
<path d="M209.019 1136.9C199.112 1118.85 227.168 1076.16 242.434 1057.07C390.283 894.337 501.508 947.417 558.492 950.713C615.475 954.01 625.822 983.564 628.309 986.077C630.298 988.087 712.665 1142.02 753.6 1218.73L353.06 1417.65L293.146 1304.84C269.231 1256.38 218.925 1154.95 209.019 1136.9Z" fill="#686CFA"/>
</mask>
<g mask="url(#mask2_193_95)">
<path d="M209.019 1136.9C199.112 1118.85 227.168 1076.16 242.434 1057.07C390.283 894.337 501.508 947.417 558.492 950.713C615.475 954.01 625.822 983.564 628.309 986.077C630.298 988.087 712.665 1142.02 753.6 1218.73L353.06 1417.65L293.146 1304.84C269.231 1256.38 218.925 1154.95 209.019 1136.9Z" fill="#686CFA"/>
<path d="M342.228 1338.81C273.556 1237.25 248.291 1102.15 244.243 1047.3L176.393 1114.45L314.695 1441.17L393.27 1427.08C404.87 1439.97 410.901 1440.37 342.228 1338.81Z" fill="#565AE6"/>
</g>
<path d="M385.127 893.202C443.653 869.106 508.469 891.677 533.562 905.974L563.817 953.132C546.499 950.042 496.866 943.584 436.871 942.472C376.876 941.36 284.481 1017.01 245.783 1054.98C240.223 1047.35 232.596 1026.74 229.478 1017.39C223.184 977.861 311.969 923.322 385.127 893.202Z" fill="#D9D9D9"/>
<defs>
<linearGradient id="paint0_linear_193_95" x1="75.5196" y1="320.91" x2="72.9422" y2="816.404" gradientUnits="userSpaceOnUse">
<stop stop-color="#FFB697"/>
<stop offset="1" stop-color="#FFB697"/>
</linearGradient>
<linearGradient id="paint1_linear_193_95" x1="142.399" y1="10.4411" x2="140.023" y2="467.248" gradientUnits="userSpaceOnUse">
<stop stop-color="#FFB697"/>
<stop offset="1" stop-color="#FFB697" stop-opacity="0.52"/>
</linearGradient>
</defs>
</svg>
