<svg width="961" height="1785" viewBox="0 0 961 1785" fill="none" xmlns="http://www.w3.org/2000/svg">
<mask id="mask0_193_95" style="mask-type:alpha" maskUnits="userSpaceOnUse" x="8" y="0" width="545" height="980">
<path d="M249.34 979.095C395.21 850.652 502.682 881.911 538.185 913.597C525.083 901.028 499.114 869.393 500.049 843.397C501.218 810.903 539.417 676.6 549.792 604.653C560.166 532.706 541.682 529.61 522.275 415.507C506.75 324.225 463.05 330.531 443.14 345.095C425.638 249.402 375.763 257.243 353.013 273.125C339.019 195.051 286.067 198.609 261.34 210.147C260.522 175.142 222.402 101.943 190.181 48.2747C157.96 -5.39362 135.501 -13.5105 115.309 23.3849C95.1171 60.2804 162.106 158.63 156.469 185.101C150.858 211.445 163.433 264.13 173.683 307.072L173.831 307.693C182.052 342.136 164.853 399.648 155.225 424.098C154.384 393.593 110.043 266.861 74.1941 237.674C38.3454 208.487 11.6431 247.349 8.59111 257.333C5.53913 267.317 31.2942 314.452 25.5107 368.923C19.7273 423.393 32.6205 443.96 50.3576 494.553C68.0947 545.146 59.665 531.602 77.5146 656.697C91.7942 756.773 198.015 913.327 249.34 979.095Z" fill="#FFAF8C"/>
</mask>
<g mask="url(#mask0_193_95)">
<path d="M249.34 979.095C395.21 850.652 502.682 881.911 538.185 913.597C525.083 901.028 499.114 869.393 500.049 843.397C501.218 810.903 539.417 676.6 549.792 604.653C560.166 532.706 541.682 529.61 522.275 415.507C506.75 324.225 463.05 330.531 443.14 345.095C425.638 249.402 375.763 257.243 353.013 273.125C339.019 195.051 286.067 198.609 261.34 210.147C260.522 175.142 222.402 101.943 190.181 48.2747C157.96 -5.39362 135.501 -13.5105 115.309 23.3849C95.1171 60.2804 162.106 158.63 156.469 185.101C150.858 211.445 163.433 264.13 173.683 307.072L173.831 307.693C182.052 342.136 164.853 399.648 155.225 424.098C154.384 393.593 110.043 266.861 74.1941 237.674C38.3454 208.487 11.6431 247.349 8.59111 257.333C5.53913 267.317 31.2942 314.452 25.5107 368.923C19.7273 423.393 32.6205 443.96 50.3576 494.553C68.0947 545.146 59.665 531.602 77.5146 656.697C91.7942 756.773 198.015 913.327 249.34 979.095Z" fill="#FFAF8C"/>
<path d="M40.1562 390.717C44.6227 377.94 42.2461 341.394 40.4995 324.718L40.5203 320.718L16.9996 324.596L16.9528 333.595C23.2633 350.829 16.3273 389.76 12.0706 407.071C38.1541 487.208 29.0398 509.161 39.0483 603.714C47.0551 679.357 109.646 777.25 139.941 816.742C123.324 743.154 82.0529 602.938 83.839 547.946C85.625 492.955 34.5731 406.688 40.1562 390.717Z" fill="url(#paint0_linear_193_95)"/>
<mask id="mask1_193_95" style="mask-type:alpha" maskUnits="userSpaceOnUse" x="7" y="-8" width="183" height="333">
<path d="M67.799 313.642C64.9866 316.027 37.921 322.153 24.7398 324.918C24.7731 318.518 12.9654 281.523 7.05733 263.825C13.1259 250.656 28.9849 245.772 36.1558 244.976C68.0669 262.142 71.3146 310.66 67.799 313.642Z" fill="#FDD6CF"/>
<path d="M135.249 34.9888C127.337 18.1474 132.737 5.30869 136.426 0.994487C138.941 -1.8258 145.77 -7.45702 152.97 -7.41957C160.17 -7.38212 180.448 29.0572 189.686 47.2722C180.33 51.5569 160.717 60.5216 157.109 62.1029C152.598 64.0795 145.14 56.0406 135.249 34.9888Z" fill="#FDD6CF"/>
</mask>
<g mask="url(#mask1_193_95)">
<path d="M67.799 313.642C64.9866 316.027 37.921 322.153 24.7398 324.918C24.7731 318.518 12.9654 281.523 7.05733 263.825C13.1259 250.656 28.9849 245.772 36.1558 244.976C68.0669 262.142 71.3146 310.66 67.799 313.642Z" fill="#FDD6CF"/>
<path d="M135.249 34.9888C127.337 18.1474 132.737 5.30869 136.426 0.994487C138.941 -1.8258 145.77 -7.45702 152.97 -7.41957C160.17 -7.38212 180.448 29.0572 189.686 47.2722C180.33 51.5569 160.717 60.5216 157.109 62.1029C152.598 64.0795 145.14 56.0406 135.249 34.9888Z" fill="#FDD6CF"/>
<path d="M155 54C150.2 52.8 137.667 34.1667 132 25C130.833 26.1667 129.2 30.6 132 39C134.8 47.4 148.5 61.5 155 67.5C167.167 61 190.4 48.2 186 49C180.5 50 161 55.5 155 54Z" fill="#FFE6E2"/>
<path d="M27 320C29.7999 323.2 56.8333 311.667 70 305.5L76 316L21 336L7 257C12.5 276.667 24.2001 316.8 27 320Z" fill="#FFE6E2"/>
</g>
<path d="M474.578 453.26C491.647 478.549 531.809 505.058 549.757 515.151C555.549 523.015 567.505 544.444 568.986 567.252C570.468 590.06 522.631 763.514 498.528 847.389C256.494 757.129 235.699 525.518 236.081 452.019C236.463 378.52 301.671 434.86 330.244 421.008C358.816 407.157 369.824 405.714 402.701 429.385C435.578 453.057 453.242 421.648 474.578 453.26Z" fill="#FFAA85"/>
<path d="M283.371 204.262C279.773 203.843 267.949 206.733 261.605 208.866C270.334 260.912 273.776 318.546 274.643 344.218C277.319 342.399 281.132 327.152 274.973 280.719C267.275 222.678 287.868 204.785 283.371 204.262Z" fill="#FFAA85"/>
<path d="M370.825 262.935L352.289 269.839L377.618 349.254C370.957 322.419 370.238 279.599 370.825 262.935Z" fill="#FFAA85"/>
<path d="M461.184 336.688C462.003 333.092 450.936 338.02 442.905 343.811L453.417 388.149C452.489 374.144 460.161 341.183 461.184 336.688Z" fill="#FFAA85"/>
<path d="M132.253 514.98C138.388 489.011 139.004 402.513 138.546 362.51L165.421 386.65C165.26 417.45 143.242 485.036 132.253 514.98Z" fill="#FFAA85"/>
<path d="M340.343 882.567C271.886 893.411 172.099 833.025 130.762 801.476L241.775 991.556L555.143 921.685L521.341 883.509C497.43 866.384 425.915 869.012 340.343 882.567Z" fill="#FFAA85"/>
<path d="M170.257 179.391C161.934 164.547 132.03 62.6904 118.118 13.6174C110.798 11.0793 95.3499 7.49887 92.1187 13.4821C88.8875 19.4654 118.002 100.118 132.963 139.696C132.274 143.859 134.816 168.006 150.487 231.289C166.158 294.571 156.198 414.988 149.259 467.285C168.111 431.716 203.35 353.865 193.489 327.014C181.164 293.449 180.66 197.945 170.257 179.391Z" fill="url(#paint1_linear_193_95)"/>
</g>
<mask id="mask2_193_95" style="mask-type:alpha" maskUnits="userSpaceOnUse" x="208" y="939" width="745" height="843">
<path d="M211.019 1136.9C201.112 1118.85 229.168 1076.16 244.434 1057.07C392.283 894.337 503.508 947.417 560.492 950.713C617.475 954.01 627.822 983.564 630.309 986.077C632.298 988.087 911.565 1477.79 952.5 1554.5L521 1782L295.146 1304.84C271.231 1256.38 220.925 1154.95 211.019 1136.9Z" fill="#686CFA"/>
</mask>
<g mask="url(#mask2_193_95)">
<path d="M211.019 1136.9C201.112 1118.85 229.168 1076.16 244.434 1057.07C392.283 894.337 503.508 947.417 560.492 950.713C617.475 954.01 627.822 983.564 630.309 986.077C632.298 988.087 911.565 1477.79 952.5 1554.5L521 1782L295.146 1304.84C271.231 1256.38 220.925 1154.95 211.019 1136.9Z" fill="#686CFA"/>
<path d="M344.228 1338.81C275.556 1237.25 250.291 1102.15 246.243 1047.3L178.393 1114.45L456.5 1842L552.5 1795.5C564.1 1808.39 412.901 1440.37 344.228 1338.81Z" fill="#565AE6"/>
</g>
<path d="M387.127 893.202C445.653 869.106 510.469 891.677 535.562 905.974L565.817 953.132C548.499 950.042 498.866 943.584 438.871 942.472C378.876 941.36 286.481 1017.01 247.783 1054.98C242.223 1047.35 234.596 1026.74 231.478 1017.39C225.184 977.861 313.969 923.322 387.127 893.202Z" fill="#D9D9D9"/>
<defs>
<linearGradient id="paint0_linear_193_95" x1="77.5196" y1="320.91" x2="74.9422" y2="816.404" gradientUnits="userSpaceOnUse">
<stop stop-color="#FFB697"/>
<stop offset="1" stop-color="#FFB697"/>
</linearGradient>
<linearGradient id="paint1_linear_193_95" x1="144.399" y1="10.4411" x2="142.023" y2="467.248" gradientUnits="userSpaceOnUse">
<stop stop-color="#FFB697"/>
<stop offset="1" stop-color="#FFB697" stop-opacity="0.52"/>
</linearGradient>
</defs>
</svg>
