<svg width="1512" height="120" viewBox="0 0 1512 120" fill="none" xmlns="http://www.w3.org/2000/svg">
<path d="M90 0L-21 60L90 120L201 60L90 0Z" fill="#8E538F"/>
<path d="M312 0L201 60L312 120L423 60L312 0Z" fill="#8E538F"/>
<path d="M534 0L423 60L534 120L645 60L534 0Z" fill="#8E538F"/>
<path d="M756 0L645 60L756 120L867 60L756 0Z" fill="#8E538F"/>
<path d="M978 0L867 60L978 120L1089 60L978 0Z" fill="#8E538F"/>
<path d="M1200 0L1089 60L1200 120L1311 60L1200 0Z" fill="#8E538F"/>
<path d="M1422 0L1311 60L1422 120L1533 60L1422 0Z" fill="#8E538F"/>
</svg>
