<svg width="1724" height="94" viewBox="0 0 1724 94" fill="none" xmlns="http://www.w3.org/2000/svg">
<path d="M86.2143 0L0 46.6023L86.2143 93.2046L172.429 46.6023L86.2143 0Z" fill="#8E538F"/>
<path d="M258.643 0L172.428 46.6023L258.643 93.2046L344.857 46.6023L258.643 0Z" fill="#8E538F"/>
<path d="M431.071 0L344.857 46.6023L431.071 93.2046L517.286 46.6023L431.071 0Z" fill="#8E538F"/>
<path d="M603.5 0L517.286 46.6023L603.5 93.2046L689.714 46.6023L603.5 0Z" fill="#8E538F"/>
<path d="M775.929 0L689.714 46.6023L775.929 93.2046L862.143 46.6023L775.929 0Z" fill="#8E538F"/>
<path d="M948.357 0L862.143 46.6023L948.357 93.2046L1034.57 46.6023L948.357 0Z" fill="#8E538F"/>
<path d="M1120.79 0L1034.57 46.6023L1120.79 93.2046L1207 46.6023L1120.79 0Z" fill="#8E538F"/>
<path d="M1293.21 0L1207 46.6023L1293.21 93.2046L1379.43 46.6023L1293.21 0Z" fill="#8E538F"/>
<path d="M1637.21 0L1551 46.6023L1637.21 93.2046L1723.43 46.6023L1637.21 0Z" fill="#8E538F"/>
<path d="M1465.21 0L1379 46.6023L1465.21 93.2046L1551.43 46.6023L1465.21 0Z" fill="#8E538F"/>
<path d="M1465.21 0L1379 46.6023L1465.21 93.2046L1551.43 46.6023L1465.21 0Z" fill="#8E538F"/>
</svg>
